<svg version="1.1" xmlns="http://www.w3.org/2000/svg" fill="white" x="0px" y="0px" viewBox="0 0 1000 1000" enable-background="new 0 0 1000 1000" xml:space="preserve">
<g><path d="M500,10C229.4,10,10,229.4,10,500c0,270.6,219.4,490,490,490c270.6,0,490-219.4,490-490C990,229.4,770.6,10,500,10z M874.3,336.7c21.9,50,34,105.3,34,163.3c0,58.1-12.1,113.3-34,163.3H690.2c9-50.6,13.9-105.7,13.9-163.3c0-57.6-4.9-112.7-13.9-163.3H874.3z M377.5,500c0-58.7,4.6-114.1,12.7-163.3h219.5c8.2,49.2,12.7,104.7,12.7,163.3c0,58.7-4.6,114.1-12.7,163.3H390.2C382.1,614.1,377.5,558.7,377.5,500z M826.7,255H671.1c-18.9-63.7-44.9-116.3-75.6-152.1C689.3,125.4,770.5,180.2,826.7,255z M500,132.5c36.3,0,68.9,47.3,91.3,122.5H408.7C431.1,179.8,463.7,132.5,500,132.5z M404.5,102.9c-30.7,35.8-56.7,88.4-75.6,152.1H173.3C229.5,180.2,310.7,125.4,404.5,102.9z M125.7,336.7h184.1c-9,50.6-13.9,105.7-13.9,163.3s4.9,112.7,13.9,163.3H125.7c-21.9-50-34-105.3-34-163.3C91.7,441.9,103.8,386.7,125.7,336.7z M173.3,745h155.5c18.9,63.7,44.9,116.3,75.6,152.1C310.7,874.6,229.5,819.8,173.3,745z M500,867.5c-36.3,0-68.9-47.3-91.3-122.5h182.6C568.9,820.2,536.3,867.5,500,867.5z M595.5,897.1c30.7-35.8,56.7-88.4,75.6-152.1h155.5C770.5,819.8,689.3,874.6,595.5,897.1z"/></g>
</svg>